<?xml version="1.0" encoding="UTF-8" standalone="no"?>
<!DOCTYPE svg PUBLIC "-//W3C//DTD SVG 1.1//EN" "http://www.w3.org/Graphics/SVG/1.1/DTD/svg11.dtd">
<svg width="100%" height="100%" viewBox="0 0 350 350" version="1.1" xmlns="http://www.w3.org/2000/svg" xmlns:xlink="http://www.w3.org/1999/xlink" xml:space="preserve" xmlns:serif="http://www.serif.com/" style="fill-rule:evenodd;clip-rule:evenodd;stroke-linejoin:round;stroke-miterlimit:2;">
    <g id="Background">
        <!-- <path d="M36.5,0L348.999,0C350.047,2.726 348.999,2.844 348.999,36.5L348.999,356.999C346.274,358.047 346.155,356.999 312.5,356.999L0,356.999C-1.532,355.467 0,352.666 0,350.5L0,0C2.725,-1.048 2.844,0 36.5,0Z" style="fill:rgb(254,254,254);"/> -->
        <path d="M107.499,15.825C268.481,15.907 268.608,15.216 279.417,17.895C314.947,26.701 328.024,59.063 329.083,75.522C329.773,86.256 329.359,152.79 329.492,269.5C329.501,276.781 330.635,311.016 295.717,330.875C276.439,341.839 271.044,339.689 171.503,339.853C72.586,340.016 72.523,339.462 64.617,337.031C41.431,329.903 17.226,309.338 16.839,271.494C16.758,263.649 16.815,83.603 16.817,83.505C16.923,78.88 17.616,48.617 40.84,30.905C63.039,13.974 78.103,15.812 107.499,15.825Z" style="fill:rgb(21,93,251);"/>
        <path d="M206.501,138.131C239.609,138.08 239.504,138.691 272.498,138.073C278.262,137.965 275.774,140.919 274.711,146.545C271.523,163.417 265.157,159.643 226.5,159.922C191.824,160.172 166.964,157.04 154.746,178.64C150.906,185.427 150.501,185.733 151.195,230.507C151.327,239.056 151.271,238.981 151.253,247.574C151.245,251.104 153.659,246.884 153.765,246.699C166.42,224.575 170.77,195.654 202.463,189.286C207.685,188.237 228.908,189.878 234.524,188.606C238.194,187.775 236.741,191.489 235.082,196.359C226.096,222.726 205.44,198.459 188.092,223.205C174.274,242.915 173.852,281.195 133.503,282.734C131.138,282.824 130.402,282.418 130.394,280.501C129.976,186.336 129.765,186.2 132.294,178.434C138.535,159.273 152.955,149.499 153.776,148.883C170.425,136.391 192.811,138.19 206.501,138.131Z" style="fill:rgb(254,254,254);"/>
        <path d="M79.132,273.502C79.11,241.388 78.982,206.629 79.055,192.498C79.082,187.163 79.249,154.998 98.963,128.851C135.327,80.622 182.525,86.096 222.499,86.128C244.883,86.146 275.689,86.091 276.413,86.647C278.29,88.085 277.041,105.919 276.924,107.591C276.719,110.524 275.049,108.906 246.505,108.311C160.911,106.527 154.321,112.414 142.28,119.088C92.445,146.709 99.754,202.611 99.729,220.501C99.643,280.802 99.664,280.86 99.292,281.356C98.545,282.35 80.096,282.573 79.703,282.248C79.167,281.805 79.135,274.203 79.132,273.502Z" style="fill:rgb(254,254,254);"/>
    </g>
</svg>
